HIERARCHY
ROOT mixamorig:Hips
{
	OFFSET 0.000000 201.639420 0.000000
	CHANNELS 6 Xposition Yposition Zposition Xrotation Yrotation Zrotation
	JOINT mixamorig:Spine
	{
		OFFSET 0.006200 19.524994 -2.481800
		CHANNELS 3 Xrotation Yrotation Zrotation
		JOINT mixamorig:Spine1
		{
			OFFSET -0.000900 22.835007 -2.825400
			CHANNELS 3 Xrotation Yrotation Zrotation
			JOINT mixamorig:Spine2
			{
				OFFSET -0.020600 26.552490 -3.193300
				CHANNELS 3 Xrotation Yrotation Zrotation
				JOINT mixamorig:Neck
				{
					OFFSET -0.060000 30.701813 1.352200
					CHANNELS 3 Xrotation Yrotation Zrotation
					JOINT mixamorig:Head
					{
						OFFSET -0.087200 22.547607 3.670900
						CHANNELS 3 Xrotation Yrotation Zrotation
						JOINT mixamorig:HeadTop_End
						{
							OFFSET -0.830600 40.355194 7.893500
							CHANNELS 3 Xrotation Yrotation Zrotation
							End Site
							{
								OFFSET 0.000000 30.592346 0.000000
							}
						}
						JOINT mixamorig:RightEye
						{
							OFFSET -6.302100 18.118591 16.197100
							CHANNELS 3 Xrotation Yrotation Zrotation
							End Site
							{
								OFFSET 0.000000 30.592346 0.000000
							}
						}
						JOINT mixamorig:LeftEye
						{
							OFFSET 6.741500 18.382690 16.401899
							CHANNELS 3 Xrotation Yrotation Zrotation
							End Site
							{
								OFFSET 0.000000 30.592346 0.000000
							}
						}
					}
				}
				JOINT mixamorig:LeftShoulder
				{
					OFFSET 11.924900 18.230499 1.425400
					CHANNELS 3 Xrotation Yrotation Zrotation
					JOINT mixamorig:LeftArm
					{
						OFFSET 25.435989 -0.697632 -5.229300
						CHANNELS 3 Xrotation Yrotation Zrotation
						JOINT mixamorig:LeftForeArm
						{
							OFFSET 54.684776 0.000000 0.000000
							CHANNELS 3 Xrotation Yrotation Zrotation
							JOINT mixamorig:LeftHand
							{
								OFFSET 55.098175 0.000000 0.000000
								CHANNELS 3 Xrotation Yrotation Zrotation
								JOINT mixamorig:LeftHandMiddle1
								{
									OFFSET 23.369751 0.000000 0.000000
									CHANNELS 3 Xrotation Yrotation Zrotation
									JOINT mixamorig:LeftHandMiddle2
									{
										OFFSET 6.378677 0.000000 0.000000
										CHANNELS 3 Xrotation Yrotation Zrotation
										JOINT mixamorig:LeftHandMiddle3
										{
											OFFSET 6.148331 0.000000 0.000000
											CHANNELS 3 Xrotation Yrotation Zrotation
											JOINT mixamorig:LeftHandMiddle4
											{
												OFFSET 6.582504 0.000000 0.000000
												CHANNELS 3 Xrotation Yrotation Zrotation
												End Site
												{
													OFFSET -1.168900 6.395691 1.028606
												}
											}
										}
									}
								}
								JOINT mixamorig:LeftHandThumb1
								{
									OFFSET 7.235672 -3.848206 5.434273
									CHANNELS 3 Xrotation Yrotation Zrotation
									JOINT mixamorig:LeftHandThumb2
									{
										OFFSET 6.568451 -3.792297 3.792300
										CHANNELS 3 Xrotation Yrotation Zrotation
										JOINT mixamorig:LeftHandThumb3
										{
											OFFSET 6.063080 -3.500519 3.500518
											CHANNELS 3 Xrotation Yrotation Zrotation
											JOINT mixamorig:LeftHandThumb4
											{
												OFFSET 4.793182 -2.767334 2.767349
												CHANNELS 3 Xrotation Yrotation Zrotation
												End Site
												{
													OFFSET 0.101639 6.054260 1.275483
												}
											}
										}
									}
								}
								JOINT mixamorig:LeftHandIndex1
								{
									OFFSET 23.101074 -0.309540 4.992809
									CHANNELS 3 Xrotation Yrotation Zrotation
									JOINT mixamorig:LeftHandIndex2
									{
										OFFSET 6.226883 0.000000 0.000000
										CHANNELS 3 Xrotation Yrotation Zrotation
										JOINT mixamorig:LeftHandIndex3
										{
											OFFSET 6.094330 0.000000 0.000000
											CHANNELS 3 Xrotation Yrotation Zrotation
											JOINT mixamorig:LeftHandIndex4
											{
												OFFSET 5.482605 0.000000 0.000000
												CHANNELS 3 Xrotation Yrotation Zrotation
												End Site
												{
													OFFSET -1.427902 5.233032 0.797164
												}
											}
										}
									}
								}
								JOINT mixamorig:LeftHandRing1
								{
									OFFSET 22.299240 0.021149 -3.964172
									CHANNELS 3 Xrotation Yrotation Zrotation
									JOINT mixamorig:LeftHandRing2
									{
										OFFSET 6.321869 0.000000 0.000000
										CHANNELS 3 Xrotation Yrotation Zrotation
										JOINT mixamorig:LeftHandRing3
										{
											OFFSET 5.899796 0.000000 0.000000
											CHANNELS 3 Xrotation Yrotation Zrotation
											JOINT mixamorig:LeftHandRing4
											{
												OFFSET 6.517899 0.000000 0.000000
												CHANNELS 3 Xrotation Yrotation Zrotation
												End Site
												{
													OFFSET -1.637299 6.232208 0.980890
												}
											}
										}
									}
								}
								JOINT mixamorig:LeftHandPinky1
								{
									OFFSET 20.463791 -0.302338 -8.562233
									CHANNELS 3 Xrotation Yrotation Zrotation
									JOINT mixamorig:LeftHandPinky2
									{
										OFFSET 6.908646 0.000000 0.000000
										CHANNELS 3 Xrotation Yrotation Zrotation
										JOINT mixamorig:LeftHandPinky3
										{
											OFFSET 4.622849 0.000000 0.000000
											CHANNELS 3 Xrotation Yrotation Zrotation
											JOINT mixamorig:LeftHandPinky4
											{
												OFFSET 5.216080 0.000000 0.000000
												CHANNELS 3 Xrotation Yrotation Zrotation
												End Site
												{
													OFFSET -0.606308 5.116241 0.814926
												}
											}
										}
									}
								}
							}
						}
					}
				}
				JOINT mixamorig:RightShoulder
				{
					OFFSET -12.001300 18.284088 1.348900
					CHANNELS 3 Xrotation Yrotation Zrotation
					JOINT mixamorig:RightArm
					{
						OFFSET -25.308500 -0.751312 -5.164599
						CHANNELS 3 Xrotation Yrotation Zrotation
						JOINT mixamorig:RightForeArm
						{
							OFFSET -54.684429 0.000000 0.000000
							CHANNELS 3 Xrotation Yrotation Zrotation
							JOINT mixamorig:RightHand
							{
								OFFSET -55.150291 0.000000 0.000000
								CHANNELS 3 Xrotation Yrotation Zrotation
								JOINT mixamorig:RightHandMiddle1
								{
									OFFSET -23.317566 0.000000 0.000000
									CHANNELS 3 Xrotation Yrotation Zrotation
									JOINT mixamorig:RightHandMiddle2
									{
										OFFSET -6.378403 0.000000 0.000000
										CHANNELS 3 Xrotation Yrotation Zrotation
										JOINT mixamorig:RightHandMiddle3
										{
											OFFSET -6.148193 0.000000 0.000000
											CHANNELS 3 Xrotation Yrotation Zrotation
											JOINT mixamorig:RightHandMiddle4
											{
												OFFSET -6.583389 0.000000 0.000000
												CHANNELS 3 Xrotation Yrotation Zrotation
												End Site
												{
													OFFSET 1.171692 6.395905 1.029786
												}
											}
										}
									}
								}
								JOINT mixamorig:RightHandThumb1
								{
									OFFSET -7.190521 -3.860474 5.435846
									CHANNELS 3 Xrotation Yrotation Zrotation
									JOINT mixamorig:RightHandThumb2
									{
										OFFSET -6.567429 -3.791718 3.791708
										CHANNELS 3 Xrotation Yrotation Zrotation
										JOINT mixamorig:RightHandThumb3
										{
											OFFSET -6.062469 -3.500153 3.500166
											CHANNELS 3 Xrotation Yrotation Zrotation
											JOINT mixamorig:RightHandThumb4
											{
												OFFSET -4.792618 -2.767029 2.767022
												CHANNELS 3 Xrotation Yrotation Zrotation
												End Site
												{
													OFFSET -0.100327 6.053253 1.276754
												}
											}
										}
									}
								}
								JOINT mixamorig:RightHandIndex1
								{
									OFFSET -23.048981 -0.310791 4.992554
									CHANNELS 3 Xrotation Yrotation Zrotation
									JOINT mixamorig:RightHandIndex2
									{
										OFFSET -6.227539 0.000000 0.000000
										CHANNELS 3 Xrotation Yrotation Zrotation
										JOINT mixamorig:RightHandIndex3
										{
											OFFSET -6.095047 0.000000 0.000000
											CHANNELS 3 Xrotation Yrotation Zrotation
											JOINT mixamorig:RightHandIndex4
											{
												OFFSET -5.484772 0.000000 0.000000
												CHANNELS 3 Xrotation Yrotation Zrotation
												End Site
												{
													OFFSET 1.420593 5.237305 0.797056
												}
											}
										}
									}
								}
								JOINT mixamorig:RightHandRing1
								{
									OFFSET -22.246323 0.020569 -3.963762
									CHANNELS 3 Xrotation Yrotation Zrotation
									JOINT mixamorig:RightHandRing2
									{
										OFFSET -6.322128 0.000000 0.000000
										CHANNELS 3 Xrotation Yrotation Zrotation
										JOINT mixamorig:RightHandRing3
										{
											OFFSET -5.900024 0.000000 0.000000
											CHANNELS 3 Xrotation Yrotation Zrotation
											JOINT mixamorig:RightHandRing4
											{
												OFFSET -6.518356 0.000000 0.000000
												CHANNELS 3 Xrotation Yrotation Zrotation
												End Site
												{
													OFFSET 1.636398 6.232697 0.982186
												}
											}
										}
									}
								}
								JOINT mixamorig:RightHandPinky1
								{
									OFFSET -20.411011 -0.303314 -8.561701
									CHANNELS 3 Xrotation Yrotation Zrotation
									JOINT mixamorig:RightHandPinky2
									{
										OFFSET -6.907349 0.000000 0.000000
										CHANNELS 3 Xrotation Yrotation Zrotation
										JOINT mixamorig:RightHandPinky3
										{
											OFFSET -4.623840 0.000000 0.000000
											CHANNELS 3 Xrotation Yrotation Zrotation
											JOINT mixamorig:RightHandPinky4
											{
												OFFSET -5.218353 0.000000 0.000000
												CHANNELS 3 Xrotation Yrotation Zrotation
												End Site
												{
													OFFSET 0.602097 5.118835 0.816273
												}
											}
										}
									}
								}
							}
						}
					}
				}
			}
		}
	}
	JOINT mixamorig:LeftUpLeg
	{
		OFFSET 18.168400 -13.561905 -0.039000
		CHANNELS 3 Xrotation Yrotation Zrotation
		JOINT mixamorig:LeftLeg
		{
			OFFSET 0.577358 -80.825211 -3.695000
			CHANNELS 3 Xrotation Yrotation Zrotation
			JOINT mixamorig:LeftFoot
			{
				OFFSET -0.577356 -83.370262 -6.520700
				CHANNELS 3 Xrotation Yrotation Zrotation
				JOINT mixamorig:LeftToeBase
				{
					OFFSET 0.750401 -20.798306 25.135401
					CHANNELS 3 Xrotation Yrotation Zrotation
					JOINT mixamorig:LeftToe_End
					{
						OFFSET -0.000500 0.001200 19.917799
						CHANNELS 3 Xrotation Yrotation Zrotation
						End Site
						{
							OFFSET 0.000000 19.917805 0.000000
						}
					}
				}
			}
		}
	}
	JOINT mixamorig:RightUpLeg
	{
		OFFSET -18.162500 -13.585098 -0.041000
		CHANNELS 3 Xrotation Yrotation Zrotation
		JOINT mixamorig:RightLeg
		{
			OFFSET -0.595024 -80.945297 -3.631900
			CHANNELS 3 Xrotation Yrotation Zrotation
			JOINT mixamorig:RightFoot
			{
				OFFSET 0.595024 -83.218193 -6.561200
				CHANNELS 3 Xrotation Yrotation Zrotation
				JOINT mixamorig:RightToeBase
				{
					OFFSET -0.753601 -20.807106 25.115000
					CHANNELS 3 Xrotation Yrotation Zrotation
					JOINT mixamorig:RightToe_End
					{
						OFFSET 0.000299 0.001700 19.918200
						CHANNELS 3 Xrotation Yrotation Zrotation
						End Site
						{
							OFFSET 0.000000 19.918203 0.000000
						}
					}
				}
			}
		}
	}
}
MOTION
Frames: 4
Frame Time: 0.033333
27.514278 131.897614 -75.800995 49.514268 -31.347966 17.038790 30.595744 10.297154 2.814333 6.859677 2.075679 1.164128 6.835290 2.144328 1.180526 -8.051182 -4.321881 1.466739 -21.184709 -17.773074 -6.991126 0.000001 -0.000002 0.000003 0.000001 -0.000002 0.000003 0.000001 -0.000002 0.000003 5.662247 -23.683275 -9.084526 -28.163645 -10.912118 -41.109437 0.000012 -38.583541 0.000004 -42.392153 -3.498197 4.085739 0.298079 2.007745 -16.887110 0.540422 2.678572 -22.809547 0.036395 0.708413 -5.880836 0.000002 0.000002 -0.000002 -1.539042 3.692477 6.126905 3.946549 7.971897 0.734780 -0.579458 1.575001 2.538715 0.000000 0.000001 0.000000 0.298634 2.009588 -16.903115 0.539667 2.676801 -22.793531 0.036392 0.708415 -5.880819 -0.000000 -0.000001 -0.000002 0.298628 2.009602 -16.903110 0.539680 2.676797 -22.793533 0.036399 0.708416 -5.880819 -0.000001 0.000000 -0.000001 1.465428 5.893260 -16.473129 0.545000 -1.382176 -23.265287 0.036397 0.708416 -5.880823 -0.000003 -0.000001 -0.000001 -0.485075 29.561021 14.231009 -42.583938 49.268398 12.260628 0.000003 13.436160 -0.000010 -4.055406 -7.630976 -23.448806 0.480690 -2.544874 21.389424 1.003310 -3.603116 31.111293 0.099706 -1.175700 9.694886 0.000003 0.000000 0.000001 -1.848553 -3.583522 -6.574971 4.643981 -8.656597 -0.226637 -1.273762 0.137315 -2.094849 0.000002 -0.000001 0.000001 0.480690 -2.544874 21.389417 1.003312 -3.603097 31.111317 0.099705 -1.175698 9.694881 0.000003 0.000000 -0.000001 0.480691 -2.544881 21.389407 1.003309 -3.603110 31.111320 0.099707 -1.175696 9.694893 -0.000000 0.000000 0.000003 0.480690 -2.544873 21.389414 1.003307 -3.603111 31.111324 0.099710 -1.175699 9.694884 0.000000 -0.000000 -0.000000 -64.924363 -4.227628 0.116758 105.304913 -4.196080 0.654435 6.103547 -7.051451 -9.397851 11.076215 -7.811671 -25.859205 -0.000002 0.000000 -0.000000 -104.201359 -9.143289 -19.168181 106.442139 -11.428804 6.587581 -27.292656 -9.697152 5.788870 -10.497243 -0.000006 0.000001 -0.000001 0.000000 0.000000 
27.898396 133.112579 -75.503777 48.644669 -32.427768 17.079107 30.705238 10.181408 2.229742 6.880361 2.052118 1.006554 6.856556 2.120548 1.022561 -7.664738 -3.940382 1.053247 -20.938363 -16.274170 -7.346048 -0.000000 0.000000 -0.000002 -0.000000 0.000000 -0.000002 -0.000000 0.000000 -0.000002 5.687246 -23.839500 -8.984215 -27.227190 -9.133611 -41.285662 -0.000024 -39.761011 -0.000013 -41.813786 -2.863293 3.957146 0.298065 2.007734 -16.887112 0.540424 2.678579 -22.809569 0.036389 0.708425 -5.880793 -0.000004 0.000001 -0.000002 -1.538705 3.693255 6.121561 3.939043 7.948725 0.746838 -0.579476 1.574998 2.538713 -0.000002 0.000001 -0.000002 0.298622 2.009587 -16.903103 0.539680 2.676797 -22.793545 0.036388 0.708416 -5.880807 -0.000002 -0.000003 0.000001 0.298625 2.009595 -16.903105 0.539680 2.676799 -22.793557 0.036386 0.708422 -5.880797 -0.000005 0.000000 -0.000001 1.465426 5.893252 -16.473124 0.545003 -1.382176 -23.265279 0.036391 0.708428 -5.880818 -0.000002 -0.000001 -0.000000 -0.305565 28.584125 13.624603 -40.347239 48.224267 12.611166 -0.000005 17.409756 0.000013 -4.242662 -7.962347 -20.910733 0.480690 -2.544870 21.389422 1.003308 -3.603120 31.111297 0.099705 -1.175695 9.694895 -0.000001 0.000000 0.000001 -1.846944 -3.587483 -6.549296 4.637204 -8.634129 -0.225420 -1.273759 0.137310 -2.094861 -0.000001 -0.000001 0.000007 0.480690 -2.544874 21.389405 1.003312 -3.603098 31.111310 0.099712 -1.175696 9.694897 0.000002 -0.000000 0.000001 0.480691 -2.544874 21.389414 1.003307 -3.603114 31.111317 0.099706 -1.175696 9.694879 0.000000 -0.000000 0.000000 0.480691 -2.544869 21.389426 1.003305 -3.603113 31.111293 0.099705 -1.175698 9.694894 0.000001 -0.000000 -0.000001 -67.651316 -5.100787 1.256153 107.375990 -3.943573 0.011720 7.941061 -6.084155 -8.821351 5.195555 -3.971424 -17.385982 -0.000001 0.000000 -0.000001 -102.454306 -9.236093 -18.645706 105.292537 -11.417786 6.535812 -27.051266 -9.544055 6.047496 -10.144584 -0.000007 0.000002 -0.000000 -0.000000 0.000000 
28.110703 134.581863 -74.864319 47.546883 -33.534347 17.184846 31.093688 10.113447 1.404403 6.948447 2.044968 0.803138 6.925774 2.112958 0.818766 -7.261548 -3.475664 0.515757 -20.812819 -14.567144 -7.567407 -0.000001 0.000002 -0.000002 -0.000001 0.000002 -0.000002 -0.000001 0.000002 -0.000002 5.818313 -24.371172 -8.886928 -26.633339 -7.355622 -40.463854 -0.000001 -41.202078 -0.000007 -40.763450 -2.337665 3.221265 0.298064 2.007732 -16.887089 0.540432 2.678572 -22.809594 0.036384 0.708416 -5.880788 -0.000000 0.000001 0.000001 -1.540037 3.690174 6.142337 3.939052 7.948716 0.746807 -0.579472 1.575005 2.538723 0.000003 0.000002 0.000000 0.298628 2.009572 -16.903113 0.539678 2.676794 -22.793557 0.036391 0.708415 -5.880810 0.000002 -0.000000 -0.000001 0.298635 2.009577 -16.903115 0.539668 2.676807 -22.793550 0.036393 0.708412 -5.880807 0.000003 0.000001 0.000002 1.465410 5.893248 -16.473137 0.545019 -1.382168 -23.265284 0.036381 0.708419 -5.880802 0.000000 -0.000001 -0.000001 -0.011188 27.680682 12.428286 -38.565697 47.550056 12.887604 -0.000001 20.886604 0.000013 -5.011676 -8.327194 -17.536740 0.480694 -2.544871 21.389393 1.003307 -3.603115 31.111320 0.099710 -1.175696 9.694895 -0.000001 0.000001 -0.000001 -1.849246 -3.581792 -6.586141 4.637199 -8.634127 -0.225396 -1.273757 0.137311 -2.094861 0.000000 0.000001 0.000003 0.480689 -2.544869 21.389420 1.003308 -3.603097 31.111300 0.099706 -1.175699 9.694903 -0.000000 -0.000000 -0.000001 0.480690 -2.544874 21.389419 1.003313 -3.603114 31.111293 0.099704 -1.175693 9.694899 -0.000000 -0.000000 0.000001 0.480690 -2.544867 21.389424 1.003305 -3.603112 31.111297 0.099715 -1.175696 9.694908 -0.000001 0.000001 -0.000001 -70.144622 -5.951458 1.819868 109.014027 -4.446483 0.192620 9.515006 -4.983875 -9.885025 -10.069340 -0.059477 -6.122814 0.000001 0.000001 -0.000001 -100.245047 -9.161012 -18.100691 103.975341 -11.368741 6.417447 -26.973313 -9.475118 6.386924 -9.677580 0.000037 0.000007 -0.000000 0.000000 0.000000 
28.118340 136.403427 -73.945061 46.408759 -34.643945 17.318498 31.591558 10.087821 0.414042 7.048741 2.056198 0.562824 7.027550 2.123325 0.577970 -6.808653 -2.954263 -0.062959 -20.788244 -12.710973 -7.481508 0.000003 -0.000002 0.000004 0.000003 -0.000002 0.000004 0.000003 -0.000002 0.000004 6.113152 -25.470023 -8.761322 -25.795502 -5.737686 -38.396223 -0.000004 -42.928497 -0.000007 -40.194690 -2.189966 2.971328 0.298079 2.007743 -16.887091 0.540425 2.678566 -22.809584 0.036381 0.708415 -5.880813 0.000002 0.000004 -0.000006 -1.540030 3.690185 6.142361 3.939051 7.948707 0.746800 -0.579467 1.575010 2.538732 -0.000002 0.000002 0.000001 0.298619 2.009591 -16.903103 0.539679 2.676796 -22.793547 0.036382 0.708411 -5.880824 -0.000001 -0.000000 0.000003 0.298633 2.009592 -16.903099 0.539672 2.676803 -22.793552 0.036385 0.708402 -5.880814 -0.000005 0.000000 0.000003 1.465427 5.893259 -16.473130 0.545016 -1.382171 -23.265265 0.036388 0.708421 -5.880816 -0.000002 -0.000003 0.000002 0.296456 27.310607 11.038238 -37.312108 46.522508 12.930530 0.000002 24.645044 0.000004 -5.694951 -9.101459 -13.609524 0.480688 -2.544871 21.389427 1.003305 -3.603117 31.111297 0.099715 -1.175696 9.694893 0.000003 -0.000000 -0.000001 -1.849244 -3.581789 -6.586142 4.637199 -8.634128 -0.225412 -1.273757 0.137311 -2.094880 -0.000001 -0.000002 0.000001 0.480693 -2.544868 21.389426 1.003312 -3.603097 31.111314 0.099706 -1.175701 9.694874 -0.000000 -0.000001 -0.000003 0.480690 -2.544873 21.389414 1.003310 -3.603118 31.111310 0.099709 -1.175695 9.694896 0.000001 0.000002 0.000003 0.480690 -2.544863 21.389429 1.003305 -3.603112 31.111314 0.099708 -1.175700 9.694882 -0.000003 -0.000001 -0.000000 -72.728449 -6.894732 2.111371 110.492100 -5.385534 1.045584 10.121581 -3.700899 -11.368913 -32.355866 -3.773113 8.010321 -0.000000 0.000000 0.000002 -97.656740 -9.023279 -17.328589 102.330864 -11.058666 6.241127 -27.038810 -9.860047 6.589930 -9.041146 -0.000020 -0.000009 -0.000000 0.000001 -0.000000 
